<?xml version="1.0" encoding="utf-8"?>
<!-- Generator: Adobe Illustrator 23.0.3, SVG Export Plug-In . SVG Version: 6.00 Build 0)  -->
<svg version="1.1" xmlns="http://www.w3.org/2000/svg" xmlns:xlink="http://www.w3.org/1999/xlink" 
	 viewBox="0 0 13 14" width="14" height="14">
<g>
	<path class="st0" d="M12.2,3.5h-0.7V4H12v2.4h0.4c0.3,0,0.5-0.3,0.5-0.6V4.2C13,3.8,12.6,3.5,12.2,3.5z"/>
	<path fill="#444444" class="st0" d="M9.2,1.3H3.9C3,1.3,1.4,1.8,1.4,2.6v0.8H0.8c-0.4,0-0.7,0.3-0.7,0.7v1.6c0,0.3,0.2,0.6,0.5,0.6H1V4h0.5v6.8
		c0,0.6,0.4,1.1,0.9,1.3V13c0,0.3,0.2,0.5,0.4,0.5h0.8C3.8,13.4,4,13.2,4,13v-0.7h5v0.6c0,0.3,0.2,0.5,0.4,0.5h0.8
		c0.2,0,0.4-0.2,0.4-0.5v-0.8c0.5-0.2,0.8-0.7,0.8-1.3l0-8.3C11.5,1.8,9.9,1.3,9.2,1.3z M4.7,1.9c0-0.1,0.1-0.2,0.2-0.2h3.2
		c0.1,0,0.2,0.1,0.2,0.2v0.3c0,0.1-0.1,0.2-0.2,0.2H4.9c-0.1,0-0.2-0.1-0.2-0.2V1.9z M2.4,10.7c-0.1-0.4,0-1.1,0-1.1S2.9,9.9,3.6,10
		c0.7,0,0.8,0.2,0.8,1C4.4,11,2.6,11.2,2.4,10.7z M10.6,10.7c-0.1,0.5-2,0.3-2,0.3c0-0.8,0.1-1,0.8-1c0.7,0,1.2-0.4,1.2-0.4
		S10.6,10.4,10.6,10.7z M10.6,8c0,0.5-1.9,0.9-2.4,0.9H4.5c-0.5,0-2-0.4-2-0.9V3.7c0-0.5,0.5-0.8,1-0.8h6c0.5,0,1.2,0.3,1.2,0.8V8z"
		/>
</g>
</svg>
