<?xml version="1.0" encoding="utf-8"?>
<!-- Generator: Adobe Illustrator 23.0.3, SVG Export Plug-In . SVG Version: 6.00 Build 0)  -->
<svg version="1.1" id="Layer_1" xmlns="http://www.w3.org/2000/svg" xmlns:xlink="http://www.w3.org/1999/xlink" x="0px" y="0px"
	 viewBox="0 0 13.5 11.5" style="enable-background:new 0 0 13.5 11.5;" xml:space="preserve">
<g>
	<path d="M0.1,5.3C0.2,5.2,0.4,5.1,0.6,5c0,0,0.1,0,0.1,0c0.7,0.2,1.5,0.5,2.2,0.7c0.1,0,0.1,0,0.2,0C5,4.8,6.8,3.9,8.7,3
		c0.6-0.3,1.2-0.6,1.8-0.9c0.4-0.2,0.8-0.2,1.3-0.2c0.3,0,0.5,0.1,0.7,0.2c0.1,0.1,0.3,0.2,0.3,0.3C13,2.6,13,2.8,12.9,3
		c-0.2,0.4-0.5,0.6-0.8,0.8c-0.8,0.4-1.7,0.8-2.5,1.2C9.6,4.9,9.5,5,9.5,5C8.9,6.6,8.4,8.2,7.8,9.8c-0.1,0.2-0.1,0.4-0.2,0.6
		c0,0.1-0.1,0.2-0.3,0.3c-0.3,0.1-0.6,0.3-0.9,0.4c-0.1,0-0.1,0-0.1,0c0-0.1,0-0.1,0-0.2c0.1-0.7,0.2-1.4,0.2-2.2
		c0.1-0.8,0.2-1.6,0.2-2.4c0,0,0,0,0-0.1c0,0-0.1,0-0.1,0.1C5.8,6.8,4.9,7.1,4,7.3C3.5,7.4,3.1,7.5,2.6,7.5C2.4,7.5,2.2,7.5,2,7.3
		c-0.5-0.5-1-1-1.5-1.5C0.3,5.6,0.2,5.5,0.1,5.3C0.1,5.3,0.1,5.3,0.1,5.3z"/>
	<path d="M7,3.2C6.8,3.3,6.6,3.4,6.5,3.5C6,3.7,5.5,3.9,5,4.2c-0.1,0-0.1,0-0.2,0C4.2,3.8,3.6,3.4,3,3c0,0,0,0,0,0
		C2.8,2.9,2.8,2.8,3,2.7c0.3-0.1,0.5-0.3,0.8-0.4c0.1,0,0.3-0.1,0.4,0C5.1,2.6,6,2.9,7,3.2C6.9,3.2,6.9,3.2,7,3.2z"/>
</g>
</svg>
