<?xml version="1.0" encoding="utf-8"?>
<!-- Generator: Adobe Illustrator 23.0.3, SVG Export Plug-In . SVG Version: 6.00 Build 0)  -->
<svg version="1.1" id="Layer_1" xmlns="http://www.w3.org/2000/svg" xmlns:xlink="http://www.w3.org/1999/xlink" x="0px" y="0px"
	 viewBox="0 0 19.7 16.1" style="enable-background:new 0 0 19.7 16.1;" xml:space="preserve">
<style type="text/css">
	.st0{fill:#B0CE00;}
</style>
<g>
	<path class="st0" d="M0,8c0.2-0.2,0.4-0.4,0.6-0.7c0.8-0.8,1.5-1.5,2.3-2.3C3,5.1,3,5,3,5c0,0,0.1,0,0.1,0C3.8,5.6,4.4,6.2,5,6.8
		c0,0,0.1,0.1,0.1,0.1C5,7,4.9,7.1,4.8,7.2C4.6,7.4,4.4,7.6,4.3,7.8c-0.1,0.1-0.1,0.1-0.1,0C3.8,7.4,3.5,7.1,3.2,6.8
		c0,0,0-0.1-0.1-0.1C2.7,7.2,2.3,7.6,1.8,8c0.4,0.4,0.8,0.9,1.3,1.3c0.7-0.7,1.3-1.3,2-1.9C5.5,7,5.9,6.6,6.4,6.1
		c0.1-0.1,0.1-0.1,0.1,0C6.8,6.4,7,6.7,7.3,6.9C7.2,7,7.1,7.1,7,7.2C6.3,7.9,5.6,8.6,4.9,9.3c-0.6,0.6-1.2,1.2-1.7,1.7
		c-0.1,0.1-0.1,0-0.1,0c-0.3-0.3-0.7-0.7-1-1C1.4,9.4,0.7,8.8,0,8C0,8.1,0,8.1,0,8C0,8.1,0,8,0,8z"/>
	<path class="st0" d="M19.5,8.1c-0.7,0.8-1.5,1.5-2.2,2.3c-0.3,0.3-0.5,0.6-0.8,0.8c-0.7-0.7-1.3-1.3-2-2c0.3-0.3,0.6-0.6,0.9-0.9
		c0.4,0.4,0.7,0.7,1.1,1.1c0.4-0.4,0.9-0.9,1.3-1.3c-0.4-0.4-0.9-0.9-1.3-1.3c-1.1,1.1-2.2,2.2-3.3,3.3c-0.3-0.3-0.6-0.6-0.9-0.9
		c1.4-1.4,2.8-2.8,4.2-4.2C17.5,6,18.5,7,19.5,8.1C19.5,8,19.5,8.1,19.5,8.1z"/>
	<path class="st0" d="M7.6,0.5c0.2,0.2,0.4,0.4,0.6,0.6C8.6,1.6,9,2,9.5,2.5c0,0,0,0,0,0C9.2,2.8,8.9,3.1,8.6,3.3
		C8.3,3,7.9,2.6,7.6,2.3C7.1,2.7,6.7,3.2,6.2,3.6c1.1,1.1,2.2,2.2,3.3,3.3C9.2,7.2,8.9,7.5,8.7,7.8C7.3,6.4,5.9,5,4.5,3.6
		c0.1-0.1,0.2-0.2,0.3-0.3c0.7-0.7,1.4-1.4,2.1-2.1C7,1,7.3,0.8,7.6,0.5C7.5,0.6,7.5,0.5,7.6,0.5C7.5,0.5,7.5,0.5,7.6,0.5z"/>
	<path class="st0" d="M12,0.5c0,0,0.1,0.1,0.1,0.1c1,1,1.9,1.9,2.9,2.9c0,0,0.1,0,0.1,0c-0.7,0.7-1.3,1.3-2,2
		c-0.3-0.3-0.6-0.6-0.9-0.9C12.6,4.3,13,4,13.3,3.6c-0.5-0.5-0.9-0.9-1.3-1.3c-1.1,1.1-2.2,2.2-3.3,3.3C8.4,5.3,8.1,5,7.8,4.7
		C7.9,4.6,8,4.6,8,4.5c0.2-0.2,0.4-0.4,0.5-0.5c0.8-0.8,1.6-1.6,2.3-2.3C11.2,1.3,11.6,0.9,12,0.5C11.9,0.6,12,0.5,12,0.5
		C12,0.5,12,0.5,12,0.5z"/>
	<path class="st0" d="M7.5,15.6C7.5,15.6,7.5,15.5,7.5,15.6c-1-1.1-2-2-3-3c0,0,0,0-0.1,0c0.7-0.7,1.3-1.3,2-2
		c0.3,0.3,0.6,0.6,0.9,0.9c-0.4,0.4-0.7,0.7-1.1,1.1c0.5,0.5,0.9,0.9,1.3,1.3c1.1-1.1,2.2-2.2,3.3-3.3c0.1,0.1,0.3,0.3,0.4,0.4
		c0.1,0.1,0.2,0.2,0.4,0.4c0.1,0.1,0.1,0.1,0,0.2c-0.3,0.3-0.7,0.7-1,1c-0.8,0.8-1.5,1.5-2.3,2.3C8.1,15,7.9,15.3,7.5,15.6
		C7.6,15.5,7.6,15.6,7.5,15.6C7.6,15.6,7.6,15.6,7.5,15.6z"/>
	<path class="st0" d="M12,15.6c-0.2-0.2-0.3-0.3-0.5-0.5c-0.5-0.5-1-1-1.4-1.5c0,0,0,0,0,0c0.3-0.3,0.6-0.6,0.9-0.9
		c0.3,0.4,0.7,0.7,1.1,1.1c0.5-0.5,0.9-0.9,1.3-1.4c-1.1-1.1-2.2-2.2-3.3-3.3c0.3-0.3,0.6-0.6,0.9-0.9c1.4,1.4,2.8,2.8,4.2,4.2
		c-0.1,0.1-0.2,0.2-0.4,0.3c-0.6,0.6-1.2,1.2-1.8,1.8C12.6,15,12.3,15.2,12,15.6C12,15.5,12,15.6,12,15.6C12,15.6,12,15.6,12,15.6z"
		/>
	<path class="st0" d="M8.7,10C8.5,9.8,8.3,9.7,8.1,9.5C8,9.4,7.9,9.3,7.8,9.2c0,0,0-0.1,0-0.1c0.5-0.5,1-1,1.5-1.5
		c0.5-0.5,0.9-0.9,1.4-1.4c0.1-0.1,0.1-0.1,0.2,0c0.2,0.2,0.5,0.5,0.7,0.7c0.1,0.1,0,0.1,0,0.1c-0.7,0.7-1.3,1.3-2,2
		C9.4,9.3,9.1,9.6,8.7,10C8.7,10,8.7,10,8.7,10z"/>
	<path class="st0" d="M8.7,12.2c-1-1-2.1-2.1-3.1-3.1c0.3-0.3,0.6-0.6,0.9-0.9c0,0,0.1,0.1,0.1,0.1C6.9,8.7,7.1,9,7.4,9.3
		C7.7,9.5,8,9.8,8.2,10.1c0.4,0.4,0.8,0.8,1.2,1.2c0,0,0.1,0.1,0,0.1C9.2,11.7,8.9,12,8.7,12.2z"/>
	<path class="st0" d="M14,6.9c-0.3,0.3-0.6,0.6-0.8,0.8c-1-1-2.1-2.1-3.1-3.1c0.3-0.3,0.6-0.6,0.8-0.8C11.9,4.9,12.9,5.9,14,6.9z"/>
</g>
</svg>
