<?xml version="1.0" encoding="utf-8"?>
<!-- Generator: Adobe Illustrator 23.0.3, SVG Export Plug-In . SVG Version: 6.00 Build 0)  -->
<svg version="1.1" id="Layer_1" xmlns="http://www.w3.org/2000/svg" xmlns:xlink="http://www.w3.org/1999/xlink" x="0px" y="0px"
	 viewBox="0 0 487.28 111.8" style="enable-background:new 0 0 487.28 111.8;" xml:space="preserve">
<style type="text/css">
	.st0{fill:none;}
	.st1{fill:#1A75BC;}
	.st2{font-family:'Steagisler';}
	.st3{font-size:42.5197px;}
	.st4{fill:#267FC3;}
	.st5{fill:#010101;}
	.st6{fill:#FFFFFF;}
</style>
<rect x="55.69" y="38.22" class="st0" width="479.35" height="64.57"/>
<text transform="matrix(1 0 0 1 114.5132 70.0475)" class="st1 st2 st3">Nubka Tour &amp; Travels</text>
<g>
	<path class="st4" d="M108.36,40.83c-0.19,0.3-0.37,0.61-0.56,0.91c-1.83,2.9-3.68,5.8-5.5,8.7c-3.62,5.77-7.2,11.56-10.84,17.31
		c-2.73,4.32-5.54,8.6-8.32,12.89c-0.1,0.15-0.2,0.29-0.22,0.33c-0.82-0.74-1.7-1.43-2.47-2.24c-4.08-4.34-7.93-8.88-11.53-13.62
		c-0.17-0.24-0.4-0.43-0.66-0.56c-2.42-1.09-4.86-2.15-7.27-3.22c-0.09-0.04-0.18-0.06-0.37-0.12c-0.9,6.21-1.78,12.38-2.66,18.55
		h-0.11c-1.39-5.59-2.77-11.19-4.2-16.94l-9.5,11.59c7.6,9.12,17.29,13.62,28.62,14.7c-0.56,0.03-1.12,0.04-1.68,0.04
		c-14.01,0.01-26.92-7.51-33.74-19.65c-0.5-0.87-0.95-1.77-1.38-2.7c-0.63-1.37-1.19-2.78-1.65-4.22
		c-3.68-12.52-1.51-24.26,6.76-35.01c6.45-8.37,15.23-13.05,25.79-14.4c0.85-0.11,1.7-0.19,2.54-0.28h3.93
		c1.3,0.16,2.6,0.28,3.89,0.48c7.28,1.09,14.07,4.32,19.48,9.27c4.4,3.97,7.82,8.88,9.99,14.37c0.04,0.09,0.08,0.17,0.17,0.34
		c0.08-0.11,0.17-0.22,0.25-0.33C107.61,38.28,108.02,39.54,108.36,40.83z"/>
	<path class="st5" d="M128.6,18.1c-1.76,2.19-3.25,4.58-4.41,7.14c-0.46,0.99-0.84,2.01-1.15,3.05c-0.18,0.73-0.19,1.49-0.02,2.22
		l0,0c0.17-0.99,0.54-1.94,1.08-2.79c0.82-1.44,1.73-2.83,2.71-4.16c2-2.64,4.01-5.28,6.5-7.51c0.14-0.16,0.27-0.34,0.38-0.53
		l-0.29-0.11c-2.31-0.87-4.68-0.74-7.05-0.3c-4.63,0.88-9.01,2.54-13.24,4.59c-1.13,0.54-2.24,1.16-3.36,1.74l0.06,0.14l4.35-1.15
		c1.48-0.39,2.95-0.79,4.43-1.18s2.92-0.76,4.39-1.09c1.47-0.34,2.94-0.61,4.42-0.91c-8.53,4.86-14.62,12.07-20.29,19.8
		c-0.08,0.11-0.17,0.22-0.25,0.33c-0.09-0.17-0.13-0.26-0.17-0.34c-2.18-5.48-5.6-10.4-9.99-14.37c-5.41-4.96-12.2-8.19-19.48-9.27
		c-1.29-0.2-2.59-0.33-3.89-0.48H69.4c-0.84,0.09-1.69,0.17-2.54,0.28c-10.55,1.35-19.33,6.03-25.79,14.4
		c-8.27,10.74-10.44,22.49-6.76,35.01c0.36,1.21,0.77,2.43,1.24,3.66c0.1,0.27,0.24,0.52,0.36,0.79c0.04-0.07,0.06-0.15,0.06-0.23
		c0-0.07-0.01-0.14-0.02-0.21c-0.29-1.39-0.64-2.77-0.85-4.16c-1.01-6.53-0.89-13.19,0.35-19.68c0.66-3.45,1.67-6.81,3.45-9.88
		c3.74-6.47,9.1-11.23,15.77-14.56c1.4-0.7,2.93-1.14,4.3-1.86c3.76-1.97,7.78-2.78,11.98-2.92c2.88-0.07,5.76,0.17,8.6,0.7
		c4.51,0.81,8.66,2.44,12.33,5.19c6.48,4.86,10.83,11.32,14.05,18.61c0.08,0.23,0.05,0.48-0.07,0.69c-2.35,3.61-4.7,7.22-7.07,10.82
		c-5.1,7.77-10.21,15.54-15.32,23.31c-0.41,0.62-0.82,1.24-1.26,1.9c-4.59-5.03-8.9-10.31-12.89-15.81
		c-3.99-5.47-7.83-11.04-11.76-16.58c-0.05,0.03-0.1,0.06-0.15,0.11c-1.05,1.21-2.13,2.39-3.14,3.63
		c-5.46,6.66-10.3,13.77-15.09,20.89c-0.59,0.87-1.23,1.7-1.86,2.54l-0.55,0.74c-0.07,0.09-0.12,0.18-0.16,0.29
		c-0.02,0.22-0.07,0.44-0.14,0.66c-3.21,5.07-6.5,10.09-9.63,15.21c-4.56,7.47-9.02,15.04-13.54,22.58
		c-0.99,1.67-1.93,3.37-2.9,5.07l0.07,0.03l28.43-41.34c0.08,0.05,0.15,0.1,0.22,0.16c0.16,0.23,0.33,0.45,0.48,0.68
		c8.34,11.8,22.64,17.97,37.03,15.98c0.21-0.05,0.42-0.12,0.61-0.21c-1.52-0.03-3.03-0.11-4.5-0.26
		c-11.33-1.08-21.01-5.57-28.62-14.7l9.48-11.59c1.43,5.75,2.81,11.34,4.2,16.94h0.11c0.88-6.17,1.77-12.34,2.66-18.55
		c0.2,0.07,0.28,0.09,0.37,0.12c2.43,1.07,4.86,2.13,7.27,3.22c0.26,0.13,0.49,0.32,0.66,0.56c3.6,4.74,7.45,9.28,11.53,13.62
		c0.77,0.8,1.65,1.5,2.47,2.24c0.02-0.02,0.12-0.17,0.22-0.33c2.78-4.29,5.58-8.57,8.32-12.89c3.64-5.75,7.23-11.55,10.84-17.31
		c1.83-2.91,3.68-5.8,5.5-8.7c0.19-0.3,0.37-0.61,0.56-0.91c0.53-0.9,1.05-1.81,1.61-2.69c3.61-5.59,7.54-10.92,12.38-15.55
		c2.05-2.01,4.34-3.77,6.81-5.25 M43.75,73.53c-0.07,0.02-0.14,0.04-0.21,0.07c-0.79-1.21-1.59-2.42-2.37-3.64
		c-0.05-0.09,0.05-0.33,0.14-0.46c0.66-0.76,1.27-1.55,1.98-2.26c0.93-0.93,1.92-1.8,2.98-2.6C45.44,67.61,44.6,70.57,43.75,73.53z
		 M67.12,61.65L58.85,58c-0.5,3.49-0.99,6.88-1.47,10.26c-0.05,0-0.09,0-0.14,0c-0.84-3.36-1.65-6.71-2.54-10.21
		c-2.19,2.67-4.3,5.25-6.39,7.82c-0.03-0.02-0.06-0.03-0.09-0.05c0.76-2.69,1.53-5.38,2.3-8.07c-0.03-0.02-0.06-0.04-0.09-0.05
		l-2.03,1.86l-0.09-0.07c2.71-3.7,5.42-7.4,8.18-11.17c3.59,4.44,7.14,8.85,10.7,13.23L67.12,61.65z"/>
	<path class="st6" d="M58.85,58c-0.5,3.49-0.99,6.88-1.47,10.25h-0.14c-0.84-3.36-1.65-6.72-2.54-10.21
		c-2.19,2.67-4.3,5.25-6.39,7.82l-0.1-0.05c0.77-2.69,1.53-5.38,2.3-8.07l-0.09-0.06l-2.03,1.87l-0.09-0.07l8.2-11.17l10.7,13.23
		l-0.06,0.09L58.85,58z"/>
	<path class="st6" d="M43.54,73.59c-0.79-1.21-1.59-2.42-2.37-3.64c-0.06-0.09,0.05-0.33,0.14-0.45c0.64-0.77,1.27-1.55,1.98-2.26
		c0.93-0.93,1.93-1.8,2.98-2.59c-0.84,2.96-1.68,5.92-2.53,8.88L43.54,73.59z"/>
</g>
</svg>
