<?xml version="1.0" encoding="utf-8"?>
<!-- Generator: Adobe Illustrator 23.0.3, SVG Export Plug-In . SVG Version: 6.00 Build 0)  -->
<svg version="1.1" xmlns="http://www.w3.org/2000/svg" xmlns:xlink="http://www.w3.org/1999/xlink" x="0px" y="0px"
	 viewBox="0 0 14 14" style="enable-background:new 0 0 14 14;" xml:space="preserve">
<style type="text/css">
	.st0{fill:#444444;}
</style>
<g id="Layer_1">
</g>
<g id="Layer_2">
	<g>
		<path class="st0" d="M13.2,3h-0.8v0.6H13v2.5h0.4c0.3,0,0.6-0.3,0.6-0.6V3.8C14,3.3,13.7,3,13.2,3z"/>
		<path class="st0" d="M9.9,0.6H4.1c-0.9,0-2.6,0.6-2.6,1.5V3H0.8C0.4,3,0,3.3,0,3.8v1.8c0,0.3,0.3,0.6,0.6,0.6H1V3.6h0.5v7.3
			c0,0.6,0.4,1.2,0.9,1.4v0.8c0,0.3,0.2,0.5,0.5,0.5h0.9c0.3,0,0.5-0.2,0.5-0.5v-0.7h5.4v0.7c0,0.3,0.2,0.5,0.5,0.5h0.9
			c0.3,0,0.5-0.2,0.5-0.5v-0.8c0.5-0.3,0.9-0.8,0.9-1.4l0-8.8C12.4,1.2,10.7,0.6,9.9,0.6z M5.1,1.3c0-0.1,0.1-0.2,0.2-0.2h3.4
			C8.9,1.1,9,1.2,9,1.3v0.3c0,0.1-0.1,0.2-0.2,0.2H5.3c-0.1,0-0.2-0.1-0.2-0.2V1.3z M2.6,10.8c-0.1-0.4,0-1.2,0-1.2s0.5,0.3,1.3,0.4
			c0.8,0,0.8,0.3,0.8,1.1C4.7,11,2.7,11.3,2.6,10.8z M11.4,10.8C11.2,11.3,9.3,11,9.3,11c0-0.9,0.1-1.1,0.8-1.1
			c0.8,0,1.3-0.4,1.3-0.4S11.5,10.4,11.4,10.8z M11.4,7.9c0,0.5-2.1,1-2.6,1h-4c-0.5,0-2.2-0.4-2.2-1V3.3c0-0.5,0.5-0.8,1.1-0.8h6.5
			c0.5,0,1.3,0.3,1.3,0.8V7.9z"/>
	</g>
</g>
</svg>
