<?xml version="1.0" encoding="utf-8"?>
<!-- Generator: Adobe Illustrator 23.0.3, SVG Export Plug-In . SVG Version: 6.00 Build 0)  -->
<svg version="1.1" id="Layer_1" xmlns="http://www.w3.org/2000/svg" xmlns:xlink="http://www.w3.org/1999/xlink" x="0px" y="0px"
	 viewBox="0 0 16 14" style="enable-background:new 0 0 16 14;" xml:space="preserve">
<style type="text/css">
	.st0{fill:#444444;}
</style>
<g>
	<path class="st0" d="M10.5,5c-0.1,2-1,3.6-2.4,4.9C8,10,7.6,10,7.5,9.9c-3.1-3-3.1-6.5,0-9.6c0.1-0.1,0.5-0.1,0.6,0
		C9.5,1.6,10.4,3.1,10.5,5z"/>
	<path class="st0" d="M4.6,3.4C3.9,6,4.8,8,6.4,10C2.5,9.5,1,6.8,0.9,3.3c0-0.3,0.2-0.5,0.5-0.5C2.2,2.7,3.8,3,4.6,3.4z"/>
	<path class="st0" d="M9.2,10C10.8,8,11.8,6,11,3.4c1.1-0.4,2.1-0.6,3.3-0.5c0.1,0,0.4,0.3,0.4,0.5c0,1.9-0.4,3.6-1.7,5
		C12,9.4,10.7,9.8,9.2,10z"/>
	<path class="st0" d="M6.9,10.9c-1.5,1.1-3.3,1-4.9-0.1c-0.3-0.2-0.6-0.5-0.8-0.7c-0.4-0.3-0.4-0.6,0-0.9c0.2-0.2,0.4-0.3,0.7-0.6
		C3.2,10.1,5,10.7,6.9,10.9z"/>
	<path class="st0" d="M8.6,10.9c2-0.2,3.8-0.8,5.1-2.2c1.2,0.8,1.2,1,0.1,1.9c-1.4,1.1-3,1.5-4.7,0.6c-0.1,0-0.2-0.1-0.3-0.2
		C8.9,11,8.8,11,8.6,10.9z"/>
	<path class="st0" d="M6.3,12.2c0.5-0.3,0.9-0.6,1.4-0.8c0.1,0,0.2,0,0.3,0c0.4,0.2,0.9,0.5,1.4,0.8c-0.4,0.5-0.8,1-1.2,1.5
		C8,14,7.7,14,7.5,13.7C7.1,13.2,6.7,12.7,6.3,12.2z"/>
	<path class="st0" d="M5.5,1.4C5.3,1.8,5.1,2.2,4.9,2.6C4.4,2.4,4,2.3,3.6,2.2C3.8,0.7,4.2,0.5,5.5,1.4z"/>
	<path class="st0" d="M10.8,2.6c-0.2-0.4-0.4-0.8-0.6-1.2c1.5-1,1.5-0.7,1.9,0.8C11.7,2.3,11.2,2.4,10.8,2.6z"/>
</g>
</svg>
