<?xml version="1.0" encoding="utf-8"?>
<!-- Generator: Adobe Illustrator 23.0.3, SVG Export Plug-In . SVG Version: 6.00 Build 0)  -->
<svg version="1.1" id="Layer_1" xmlns="http://www.w3.org/2000/svg" xmlns:xlink="http://www.w3.org/1999/xlink" x="0px" y="0px"
	 viewBox="0 0 16 15.1" style="enable-background:new 0 0 16 15.1;" xml:space="preserve">
<style type="text/css">
	.st0{fill:#444444;}
</style>
<g>
	<path class="st0" d="M0.6,2.3C0.8,1.9,1,1.6,1.5,1.5c0.1,0,0.2,0,0.4,0c1.9,0,3.9,0,5.8,0c0.5,0,0.9,0.3,1.2,0.8c0,0,0,0.1,0,0.2
		C8.4,2.8,8,3.2,7.6,3.7c0,0,0,0-0.1,0c0-0.1,0-0.2,0-0.2c0-0.2-0.1-0.4-0.3-0.4c-1.7,0-3.3,0-5,0C2,3.1,1.9,3.2,1.9,3.5
		c0,2.7,0,5.5,0,8.2c0,0.3,0.1,0.4,0.3,0.4c1.6,0,3.3,0,4.9,0c0.3,0,0.4-0.1,0.4-0.4c0-0.7,0-1.5,0-2.2c0-0.1,0-0.1,0-0.2
		c0,0,0.1,0,0.1,0.1c0.4,0.4,0.8,0.9,1.2,1.3c0,0,0.1,0.1,0.1,0.2c0,1,0,1.9,0,2.9c0,0.6-0.5,1.1-1,1.2c-0.1,0-0.2,0-0.4,0
		c-1.9,0-3.8,0-5.8,0c-0.6,0-1-0.3-1.3-0.9C0.6,10.1,0.6,6.2,0.6,2.3z M6.5,14.2c0.2,0,0.4,0,0.6,0c0.3,0,0.5-0.2,0.5-0.5
		c0-0.3-0.2-0.5-0.5-0.5c-0.4,0-0.9,0-1.3,0c-0.3,0-0.5,0.2-0.5,0.5c0,0.3,0.2,0.5,0.5,0.5C6.1,14.2,6.3,14.2,6.5,14.2z M3,14.2
		C3,14.2,3,14.2,3,14.2c0.2,0,0.4,0,0.7,0c0.3,0,0.5-0.3,0.5-0.6c0-0.3-0.2-0.5-0.5-0.5c-0.4,0-0.9,0-1.3,0c-0.3,0-0.5,0.2-0.5,0.6
		c0,0.3,0.2,0.5,0.5,0.5C2.6,14.2,2.8,14.2,3,14.2z"/>
	<path class="st0" d="M15.6,4.6c-0.4,0.5-0.9,1-1.3,1.5c-1.2,1.3-2.5,2.7-3.7,4c-0.3,0.3-0.5,0.3-0.7,0c-0.5-0.5-0.9-1-1.4-1.5
		c0,0-0.1-0.1-0.1-0.1c1.9-2,3.7-4,5.6-6c0,0,0,0,0,0c0.5,0.6,1,1.1,1.6,1.7c0,0,0.1,0.1,0.1,0.1C15.6,4.4,15.6,4.5,15.6,4.6z"/>
	<path class="st0" d="M7.4,7.5C7.2,7.2,6.9,7,6.7,6.8c-0.2-0.2-0.1-0.4,0-0.6c0.5-0.5,0.9-1,1.4-1.5c1.2-1.3,2.4-2.5,3.5-3.8
		c0.3-0.3,0.5-0.3,0.8,0c0.2,0.2,0.4,0.4,0.5,0.6C11.1,3.4,9.2,5.4,7.4,7.5z"/>
</g>
</svg>
