<?xml version="1.0" encoding="utf-8"?>
<!-- Generator: Adobe Illustrator 23.0.3, SVG Export Plug-In . SVG Version: 6.00 Build 0)  -->
<svg version="1.1" id="Layer_1" xmlns="http://www.w3.org/2000/svg" xmlns:xlink="http://www.w3.org/1999/xlink" x="0px" y="0px"
	 viewBox="0 0 11.1 15.6" style="enable-background:new 0 0 11.1 15.6;" xml:space="preserve">
<style type="text/css">
	.st0{fill:#444444;}
</style>
<g>
	<g>
		<path class="st0" d="M7.7,0.1C8,0.3,8.1,0.4,7.9,0.7c0,0-0.1,0.1-0.1,0.1C7.4,1.2,7.1,1.7,7,2.3c0,0.1-0.1,0.1-0.2,0.1
			c-0.8,0-1.5,0-2.3,0c-0.1,0-0.2,0-0.2-0.1C4.2,1.8,3.9,1.4,3.5,1C3.4,1,3.4,0.9,3.4,0.8c-0.1-0.2,0-0.3,0.2-0.3
			c0.1,0,0.2,0,0.3,0.1C4,0.6,4.1,0.7,4.2,0.7C4.5,0.9,4.7,0.8,5,0.6C5,0.6,5.1,0.5,5.2,0.4c0.2-0.1,0.3-0.1,0.5,0c0,0,0,0,0.1,0.1
			C6,0.8,6.3,0.8,6.6,0.6c0.1-0.1,0.3-0.2,0.4-0.3c0.1-0.1,0.3-0.1,0.4-0.2C7.6,0.1,7.7,0.1,7.7,0.1z"/>
		<path class="st0" d="M8.1,13.3c-0.3-0.4-0.8-0.5-1.3-0.5c0.1-0.2,0.3-0.4,0.4-0.6C7.4,12,7.3,11.6,7,11.4c-0.3-0.3-0.8-0.2-1,0.1
			c-0.1,0.2-0.3,0.4-0.4,0.6c0,0-0.1,0.1-0.1,0.1c-0.2-0.6-0.6-1-1.2-1c-0.5,0-0.9,0.2-1.2,0.6c-0.3,0.5-0.2,1,0.1,1.5
			c0,0-0.1,0-0.1,0c-1.1-0.5-1.8-1.3-2-2.6C1,10,1.1,9.3,1.3,8.6c0.2-0.7,0.6-1.4,1-2c0.5-0.7,1-1.4,1.5-2.1C4,4.3,4.1,4.1,4.2,3.9
			c0-0.1,0.1-0.1,0.2-0.1c0.8,0,1.7,0,2.5,0c0.1,0,0.1,0,0.2,0.1c0.7,0.9,1.3,1.8,2,2.8c0.5,0.7,0.9,1.6,1.1,2.5
			c0.2,0.8,0.2,1.6-0.1,2.3C9.6,12.3,8.9,12.9,8.1,13.3z M4.3,9c0,0.4,0,0.3-0.3,0.4C3.7,9.6,3.3,9.4,3.3,9c0-0.1,0-0.3,0-0.4
			c0-0.2,0.2-0.4,0.4-0.5c0.2,0,0.4,0,0.6,0.2c0,0,0,0.1,0.1,0.1c0.1,0,0.2,0,0.2,0c0.1,0,0.1-0.1,0.1-0.2C4.6,8.1,4.5,8,4.4,8
			C4.2,7.8,4,7.8,3.7,7.8c-0.5,0-0.9,0.4-0.9,0.9c0,0.6,0.3,1,0.8,1c0.3,0,0.5,0,0.8-0.1c0.2-0.1,0.3-0.2,0.3-0.4c0-0.1,0-0.2,0-0.2
			c0-0.1-0.1-0.2-0.2-0.2c-0.2,0-0.3,0-0.5,0c-0.1,0-0.2,0.1-0.2,0.1C3.8,8.9,3.9,9,4,9C4.1,9,4.2,9,4.3,9z M5.8,9.8
			C5.8,9.8,5.8,9.8,5.8,9.8c0.1,0,0.1,0,0.2,0c0.4-0.1,0.6-0.3,0.6-0.5c0-0.3-0.1-0.5-0.5-0.6c-0.2,0-0.3-0.1-0.5-0.1
			c-0.1,0-0.2-0.1-0.2-0.2c0-0.1,0.1-0.2,0.2-0.2C5.9,8,6,8.1,6.2,8.3c0.1,0.1,0.1,0.2,0.2,0.1c0.1-0.1,0.1-0.2,0.1-0.3
			C6.4,8.1,6.3,8,6.2,7.9c-0.3-0.2-0.6-0.1-0.9,0C5.2,8,5.1,8.1,5.1,8.3c0,0.2,0.1,0.3,0.3,0.4c0.1,0,0.2,0.1,0.3,0.1
			C5.8,8.9,5.9,8.9,6,9c0.1,0,0.2,0.1,0.2,0.2c0,0.1-0.1,0.2-0.1,0.2c0,0-0.1,0-0.2,0.1c-0.2,0-0.4,0-0.5-0.3c0-0.1-0.1-0.2-0.2-0.1
			C5.1,9.1,5,9.2,5.1,9.3c0,0.2,0.1,0.3,0.3,0.4C5.5,9.7,5.7,9.7,5.8,9.8z M7.4,8.1c0,0.1,0,0.1,0,0.2c0,0.4,0,0.8,0,1.2
			c0,0.1,0,0.1,0,0.2c0,0.1,0.1,0.1,0.2,0.1c0.1,0,0.1-0.1,0.2-0.1c0,0,0-0.1,0-0.1c0-0.4,0-0.8,0-1.2c0-0.1,0-0.1,0-0.2
			c0.2,0,0.3,0,0.4,0c0.1,0,0.2,0,0.2-0.1c0-0.1-0.1-0.1-0.2-0.1c-0.4,0-0.8,0-1.3,0c-0.1,0-0.2,0-0.2,0.1c0,0.1,0.1,0.2,0.2,0.2
			C7.1,8.1,7.3,8.1,7.4,8.1z"/>
		<path class="st0" d="M4.2,13.3c-0.5,0-0.8-0.4-0.8-0.8c0-0.4,0.4-0.8,0.8-0.8c0.5,0,0.8,0.4,0.8,0.8C5.1,12.9,4.7,13.3,4.2,13.3z
			 M4.2,12.8c0.2,0,0.4-0.2,0.3-0.3c0-0.2-0.2-0.3-0.4-0.3c-0.2,0-0.3,0.2-0.3,0.3C3.9,12.7,4.1,12.8,4.2,12.8z"/>
		<path class="st0" d="M7,14.8c-0.5,0-0.8-0.4-0.8-0.8c0-0.4,0.4-0.8,0.8-0.8c0.5,0,0.8,0.4,0.8,0.8C7.8,14.4,7.5,14.8,7,14.8z
			 M7,14.3c0.2,0,0.4-0.2,0.3-0.3c0-0.2-0.2-0.3-0.4-0.3c-0.2,0-0.3,0.2-0.3,0.3C6.7,14.1,6.8,14.3,7,14.3z"/>
		<path class="st0" d="M5.7,3.4c-0.5,0-0.9,0-1.4,0C4.1,3.4,4,3.3,4,3.1C4,3,4.1,2.9,4.3,2.9c0.9,0,1.8,0,2.7,0
			c0.2,0,0.3,0.1,0.3,0.2c0,0.1-0.1,0.2-0.3,0.2C6.6,3.4,6.1,3.4,5.7,3.4C5.7,3.4,5.7,3.4,5.7,3.4z"/>
	</g>
	<path class="st0" d="M3.9,15.3l0.3,0.2c0.1,0.1,0.2,0,0.2,0L7,11.9c0.1-0.1,0-0.2,0-0.2l-0.3-0.2c-0.1-0.1-0.2,0-0.2,0L3.9,15
		C3.8,15.1,3.8,15.2,3.9,15.3z"/>
</g>
</svg>
