<?xml version="1.0" encoding="utf-8"?>
<!-- Generator: Adobe Illustrator 23.0.3, SVG Export Plug-In . SVG Version: 6.00 Build 0)  -->
<svg version="1.1" id="Layer_1" xmlns="http://www.w3.org/2000/svg" xmlns:xlink="http://www.w3.org/1999/xlink" x="0px" y="0px"
	 viewBox="0 0 17.9 16.9" style="enable-background:new 0 0 17.9 16.9;" xml:space="preserve">
<style type="text/css">
	.st0{fill:#444444;}
</style>
<g>
	<path class="st0" d="M0.1,15.5c0.3-0.8,0.7-1.5,1-2.3c0.7-1.6,1.4-3.1,2.1-4.7c0-0.1,0-0.2,0-0.3C2.9,7.9,2.7,7.5,2.7,7
		C2.6,5.8,3.6,4.7,4.8,4.6C5.9,4.5,7,5.4,7.2,6.5c0.1,0.5,0,1-0.3,1.5c0,0.1-0.1,0.2-0.1,0.3C7.2,8.4,7.6,8.6,8,8.7
		c0.1,0,0.2,0,0.3,0.1c0.7,0.4,1.3,0.1,1.9-0.1C9.9,8.3,9.7,8.1,9.5,7.8c-0.4-0.7-0.8-1.4-1-2.2C8.3,4.4,8.6,3.3,9.4,2.3
		c1.1-1.2,2.5-1.7,4-1.4c1.7,0.4,2.8,1.4,3.2,3.2c0.2,0.8,0.1,1.6-0.3,2.4c-0.4,0.8-0.9,1.5-1.4,2.2C14.9,8.9,14.9,9,15,9.2
		c0.9,2,1.8,4.1,2.7,6.1c0,0.1,0,0.1,0.1,0.2c-0.6-0.2-1.1-0.4-1.6-0.6c-0.9-0.4-1.9-0.7-2.8-1.1c-0.1,0-0.2,0-0.3,0
		c-1.2,0.5-2.4,1.1-3.7,1.6c-0.1,0.1-0.2,0.1-0.3,0c-1.3-0.6-2.6-1.1-3.9-1.6c-0.1-0.1-0.2-0.1-0.4,0c-1.4,0.6-2.9,1.1-4.3,1.7
		C0.3,15.5,0.2,15.5,0.1,15.5z M1.8,14.1c1-0.5,2-0.9,3-1.4c0.1,0,0.2,0,0.3,0c1.3,0.5,2.6,1.1,3.9,1.6c0.1,0,0.2,0.1,0.3,0
		c1.2-0.5,2.4-1.1,3.6-1.6c0.1,0,0.2,0,0.3,0c0.9,0.4,1.9,0.9,2.8,1.3c0.1,0,0.1,0.1,0.2,0.1c-0.6-1.5-1.2-3-1.8-4.6
		c-0.6,0.8-1.2,1.6-1.7,2.4c0,0,0-0.1-0.1-0.1c-0.6-0.8-1.1-1.6-1.7-2.3c-0.1-0.1-0.2-0.2-0.3-0.1c-0.5,0.2-0.9,0.3-1.4,0.5
		c-0.1,0-0.2,0-0.3,0C8.1,9.7,7.3,9.4,6.5,9.2c-0.2-0.1-0.3,0-0.4,0.1C5.7,9.8,5.3,10.4,5,10.9C4.6,10.5,4.3,10,4,9.5
		C3.9,9.5,3.9,9.4,3.8,9.4c-0.1,0-0.2,0.1-0.2,0.2c-0.4,0.9-0.7,1.9-1.1,2.8C2.2,13,2,13.5,1.8,14.1z M14.7,5c0-1.1-0.9-2-2-2
		c-1.1,0-2,0.9-2.1,1.9c0,1.1,0.9,2,2,2C13.7,6.9,14.6,6.1,14.7,5z M4.9,8C5.5,8,6,7.6,6.1,6.9c0-0.6-0.5-1.1-1.1-1.1
		c-0.6,0-1.1,0.5-1.1,1.1C3.8,7.5,4.3,8,4.9,8z"/>
</g>
</svg>
